<svg xmlns="http://www.w3.org/2000/svg" viewBox="0 0 144.87 137.11"><defs><style>.cls-1,.cls-2{fill:#231f20;}.cls-2{stroke:#231f20;stroke-miterlimit:10;}</style></defs><title>Asset 1</title><g id="Layer_2" data-name="Layer 2"><g id="Layer_1-2" data-name="Layer 1"><path class="cls-1" d="M36.28,54.15l6.38,7.33-27.59,24L27.15,99.37l25.9-22.53,6.41,7.37L33.57,106.74,46.93,122.1l28.77-25,6.47,7.44-37.46,32.6L0,85.72Z"/><path class="cls-1" d="M57.06,36.07l44.71,51.39L93.08,95,48.37,43.64Z"/><path class="cls-1" d="M70.1,24.73l20-17.37a29.08,29.08,0,0,1,11.27-6.28,28.36,28.36,0,0,1,12-.76A32.49,32.49,0,0,1,124.92,4.5a42.8,42.8,0,0,1,17.51,20.27A33,33,0,0,1,144.87,37a28.48,28.48,0,0,1-2.51,11.69,29,29,0,0,1-7.58,10l-20,17.37ZM117,61.11l9.21-8a22.83,22.83,0,0,0,5.44-6.84,18.57,18.57,0,0,0,2.08-8,21.66,21.66,0,0,0-1.62-8.66,30.75,30.75,0,0,0-5.59-8.89,32.66,32.66,0,0,0-8.38-7.14,21,21,0,0,0-8.36-2.76,17.62,17.62,0,0,0-8,1.14,24.83,24.83,0,0,0-7.39,4.52l-9.21,8Z"/><circle class="cls-2" cx="102.68" cy="25.46" r="4.27"/><circle class="cls-2" cx="117.35" cy="42.33" r="4.27"/></g></g></svg>